HIERARCHY
ROOT Hips
{
	OFFSET 0.000000 0.000000 0.000000
	CHANNELS 6 Xposition Yposition Zposition Zrotation Yrotation Xrotation 
	JOINT LeftUpLeg_virtual
	{
		OFFSET 0.000000 0.000000 0.000000
		CHANNELS 3 Zrotation Yrotation Xrotation
		JOINT LeftUpLeg
		{
			OFFSET 8.479694 -4.795517 -0.379053
			CHANNELS 3 Zrotation Yrotation Xrotation
			JOINT LeftLeg
			{
				OFFSET 0.485052 -32.551468 0.112863
				CHANNELS 3 Zrotation Yrotation Xrotation
				JOINT LeftFoot
				{
					OFFSET 0.438033 -32.635670 -3.012641
					CHANNELS 3 Zrotation Yrotation Xrotation
					JOINT LeftToeBase
					{
						OFFSET 0.970169 -13.225353 11.864223
						CHANNELS 3 Zrotation Yrotation Xrotation
						End Site
						{
							OFFSET 0.000000 0.000000 0.000000
						}
					}
				}
			}
		}
	}
	JOINT RightUpLeg_virtual
	{
		OFFSET 0.000000 0.000000 0.000000
		CHANNELS 3 Zrotation Yrotation Xrotation
		JOINT RightUpLeg
		{
			OFFSET -8.479694 -4.795517 -0.379053
			CHANNELS 3 Zrotation Yrotation Xrotation
			JOINT RightLeg
			{
				OFFSET -0.484100 -32.551483 0.112903
				CHANNELS 3 Zrotation Yrotation Xrotation
				JOINT RightFoot
				{
					OFFSET -0.438985 -32.635651 -3.012681
					CHANNELS 3 Zrotation Yrotation Xrotation
					JOINT RightToeBase
					{
						OFFSET -0.970169 -13.225354 11.864223
						CHANNELS 3 Zrotation Yrotation Xrotation
						End Site
						{
							OFFSET 0.000000 0.000000 0.000000
						}
					}
				}
			}
		}
	}
	JOINT Spine_virtual
	{
		OFFSET 0.000000 0.000000 0.000000
		CHANNELS 3 Zrotation Yrotation Xrotation
		JOINT Spine
		{
			OFFSET 0.000000 7.722015 1.166203
			CHANNELS 3 Zrotation Yrotation Xrotation
			JOINT Spine1
			{
				OFFSET 0.000000 12.024086 0.248766
				CHANNELS 3 Zrotation Yrotation Xrotation
				JOINT Spine2
				{
					OFFSET -0.000000 11.503036 -0.491240
					CHANNELS 3 Zrotation Yrotation Xrotation
					JOINT Neck_virtual
					{
						OFFSET 0.000000 0.000000 0.000000
						CHANNELS 3 Zrotation Yrotation Xrotation
						JOINT Neck
						{
							OFFSET 0.000000 18.430687 -3.123054
							CHANNELS 3 Zrotation Yrotation Xrotation
							JOINT Head
							{
								OFFSET -0.000000 9.051071 1.034021
								CHANNELS 3 Zrotation Yrotation Xrotation
								End Site
								{
									OFFSET 0.000000 0.000000 0.000000
								}
							}
						}
					}
					JOINT LeftShoulder_virtual
					{
						OFFSET 0.000000 0.000000 0.000000
						CHANNELS 3 Zrotation Yrotation Xrotation
						JOINT LeftShoulder
						{
							OFFSET 6.197824 13.665230 -4.064723
							CHANNELS 3 Zrotation Yrotation Xrotation
							JOINT LeftArm
							{
								OFFSET 7.778132 -0.187073 -1.709282
								CHANNELS 3 Zrotation Yrotation Xrotation
								JOINT LeftForeArm
								{
									OFFSET 21.954697 0.000000 -2.041093
									CHANNELS 3 Zrotation Yrotation Xrotation
									JOINT LeftHand
									{
										OFFSET 22.992908 0.000000 -0.870901
										CHANNELS 3 Zrotation Yrotation Xrotation
										End Site
										{
											OFFSET 0.000000 0.000000 0.000000
										}
									}
								}
							}
						}
					}
					JOINT RightShoulder_virtual
					{
						OFFSET 0.000000 0.000000 0.000000
						CHANNELS 3 Zrotation Yrotation Xrotation
						JOINT RightShoulder
						{
							OFFSET -6.197824 13.665230 -4.064723
							CHANNELS 3 Zrotation Yrotation Xrotation
							JOINT RightArm
							{
								OFFSET -7.778132 -0.187073 -1.709282
								CHANNELS 3 Zrotation Yrotation Xrotation
								JOINT RightForeArm
								{
									OFFSET -21.954697 0.000000 -2.041093
									CHANNELS 3 Zrotation Yrotation Xrotation
									JOINT RightHand
									{
										OFFSET -22.992908 0.000000 -0.870901
										CHANNELS 3 Zrotation Yrotation Xrotation
										End Site
										{
											OFFSET 0.000000 0.000000 0.000000
										}
									}
								}
							}
						}
					}
				}
			}
		}
	}
}
MOTION
Frames: 14
Frame Time: 0.033333
0.218062 80.853615 -77.703888 -179.593991 -20.687046 -179.806519 -0.754321 -1.788203 7.562661 1.151490 -5.241742 -30.073313 10.888886 1.470253 34.602353 -6.135139 -6.192502 -5.889131 0.000000 0.000000 0.000000 0.192701 -0.212370 9.469980 -10.472189 7.602579 -29.114494 -1.847869 7.914829 39.016438 12.449936 5.792349 -6.397170 0.000000 0.000000 0.000000 4.540910 1.064160 -7.505532 2.796412 3.561053 -0.781253 -1.270729 -3.951238 10.014963 -0.025971 -0.097758 0.019249 -1.444722 -2.854177 11.234189 6.335517 -10.804581 -3.126536 0.000000 0.000000 0.000000 0.297042 -2.498668 8.156421 -3.417477 -1.603136 3.190001 -60.468744 10.021665 27.495534 -9.775169 -61.902025 15.220938 0.000000 0.000000 0.000000 -4.091143 -0.900403 7.565708 24.061254 -3.049522 2.953942 28.697508 18.719404 -34.472699 -3.898917 51.935372 -7.651250 0.000000 0.000000 0.000000 
-1.053500 80.790520 -77.026085 -179.823718 -19.995947 179.942071 -0.928130 -1.672286 7.624545 -0.038702 -5.946554 -29.856567 11.253991 1.973842 34.699475 -5.611708 -6.065158 -6.284098 0.000000 0.000000 0.000000 0.261195 -0.300583 8.944783 -10.733228 6.597996 -29.759165 -2.215359 6.773601 40.432073 10.944191 4.120165 -4.065131 0.000000 0.000000 0.000000 4.356809 1.238288 -7.276166 2.936625 3.428383 -0.706244 -1.441502 -3.889532 10.105512 -0.023385 -0.103949 0.040789 -1.603065 -2.743289 11.209117 6.045990 -10.894609 -3.185164 0.000000 0.000000 0.000000 0.140845 -2.423298 8.124294 -3.513782 -1.422627 3.128609 -60.185148 9.936286 27.948256 -9.671143 -62.017271 15.315239 0.000000 0.000000 0.000000 -4.209507 -0.919991 7.472367 24.305110 -3.089943 2.972633 29.318485 18.890898 -33.170797 -3.368043 50.435804 -6.784356 0.000000 0.000000 0.000000 
-2.140557 80.856010 -76.567612 179.726920 -19.003931 -179.911254 -1.278715 -1.799133 7.747765 -1.125421 -6.329091 -29.596904 11.606661 2.809900 34.277373 -5.130360 -5.776294 -6.454904 0.000000 0.000000 0.000000 0.415408 -0.881195 8.761826 -10.604751 5.404821 -31.696480 -2.299538 5.768581 43.295026 10.031945 3.460289 -3.317730 0.000000 0.000000 0.000000 3.944503 1.247299 -7.212899 2.812441 3.385492 -0.873245 -1.544928 -3.611748 10.015468 0.029448 0.057073 -0.006566 -1.682349 -2.625784 11.125890 5.696611 -10.700073 -3.117338 0.000000 0.000000 0.000000 0.077425 -2.094421 8.089419 -3.555039 -1.262087 3.123467 -59.852900 10.114925 28.394760 -9.713289 -62.287446 15.582815 0.000000 0.000000 0.000000 -4.259764 -0.716052 7.335327 24.511039 -3.280342 2.801424 30.247640 18.295032 -31.226003 -3.158277 49.025725 -6.229620 0.000000 0.000000 0.000000 
-3.018168 81.001862 -76.348381 179.511879 -18.624883 -179.919436 -1.555613 -2.125550 7.937646 -1.953876 -6.212788 -29.148888 11.906202 3.279925 33.553301 -4.846339 -5.508312 -6.425541 0.000000 0.000000 0.000000 0.581080 -1.467802 8.396883 -10.028035 4.028761 -33.026967 -2.600379 4.594113 46.601684 9.017130 2.881380 -3.422296 0.000000 0.000000 0.000000 3.595471 1.015238 -7.207151 2.587020 3.261307 -1.077803 -1.560170 -3.356127 9.911161 0.088918 0.138003 0.025923 -1.736642 -2.254501 10.849415 5.378888 -10.724858 -3.134447 0.000000 0.000000 0.000000 0.057617 -1.914189 7.753740 -3.626781 -1.043117 3.117396 -59.533595 10.847299 28.633874 -9.849426 -62.900223 15.901000 0.000000 0.000000 0.000000 -4.299190 -0.437622 7.062685 24.595982 -3.362759 2.777123 31.412457 17.121116 -29.569958 -2.933615 47.479227 -5.625286 0.000000 0.000000 0.000000 
-3.740450 81.170967 -76.306084 179.559458 -19.254682 -179.873606 -1.729106 -2.537794 7.986878 -2.385041 -6.247043 -28.758102 12.087786 3.460304 32.836015 -4.807230 -5.393005 -6.184808 0.000000 0.000000 0.000000 0.693630 -1.966710 8.265793 -9.383455 3.445037 -33.914119 -2.573448 4.024214 49.185961 9.056028 3.453630 -4.172847 0.000000 0.000000 0.000000 3.317162 0.643958 -7.367502 2.311956 2.999495 -1.440382 -1.537140 -3.215787 9.751494 0.082097 0.066163 0.017784 -1.717118 -1.847777 10.641495 5.089933 -10.648203 -3.117206 0.000000 0.000000 0.000000 0.101094 -1.636966 7.484240 -3.782791 -0.829816 3.109070 -59.155770 11.760131 28.751128 -9.887938 -63.676720 16.137456 0.000000 0.000000 0.000000 -4.160227 -0.165016 6.952544 24.734446 -3.314611 2.722565 32.649124 15.647424 -27.643669 -2.812806 45.666174 -5.072087 0.000000 0.000000 0.000000 
-4.379045 81.257721 -76.357567 179.624836 -20.103979 -179.838362 -1.897236 -2.723011 8.004332 -2.712402 -6.275158 -28.392135 12.134336 3.614246 32.363625 -4.888675 -5.400174 -6.141568 0.000000 0.000000 0.000000 0.505438 -2.047621 8.304741 -8.947444 3.795769 -34.341802 -1.283667 4.710523 50.167965 10.727834 5.734776 -4.992534 0.000000 0.000000 0.000000 3.004674 0.537752 -7.530344 1.944976 2.854332 -1.750879 -1.438187 -2.943646 9.613425 0.031927 0.133382 -0.010769 -1.583197 -1.825896 10.430926 4.869191 -10.599993 -3.092676 0.000000 0.000000 0.000000 0.236320 -1.437607 7.403540 -3.850174 -0.839460 3.071805 -58.888177 12.609521 28.791276 -10.043001 -64.438272 16.479532 0.000000 0.000000 0.000000 -4.027169 0.015509 6.771342 24.917835 -3.116994 2.883841 33.683310 14.076415 -25.605602 -3.048883 43.600075 -4.788161 0.000000 0.000000 0.000000 
-4.989872 81.248215 -76.402130 179.632554 -21.634324 -179.919600 -2.094896 -2.768240 7.954757 -2.950313 -6.560646 -28.153229 12.015632 3.665139 32.327087 -5.011261 -5.556971 -6.420098 0.000000 0.000000 0.000000 0.411874 -2.145500 8.348054 -8.419565 4.292681 -34.431226 -0.674744 5.090932 50.143345 11.476745 6.975293 -5.935997 0.000000 0.000000 0.000000 2.637536 0.437397 -7.636905 1.529500 2.667706 -1.978156 -1.320106 -2.759606 9.552747 0.065830 0.117209 0.006899 -1.560862 -1.877560 10.167393 4.593182 -9.969064 -3.078418 0.000000 0.000000 0.000000 0.307337 -1.254873 7.247142 -3.870130 -0.894324 2.981431 -58.821357 13.400165 28.722219 -10.033569 -65.043345 16.650219 0.000000 0.000000 0.000000 -3.935325 0.194756 6.671029 24.986121 -2.508992 3.212753 34.663948 12.706422 -23.164175 -3.361467 41.090985 -4.472008 0.000000 0.000000 0.000000 
-5.646169 81.153503 -76.463043 179.662170 -23.450929 -179.948369 -2.251392 -2.737817 7.863715 -3.158400 -6.838607 -28.177491 11.848718 3.683822 32.768700 -5.068048 -5.763225 -6.880708 0.000000 0.000000 0.000000 0.350629 -2.191859 8.278469 -7.833353 4.955344 -34.389145 -0.652171 5.258296 49.484499 11.409491 7.131265 -6.344637 0.000000 0.000000 0.000000 2.338031 0.423096 -7.865695 1.108381 2.525068 -2.209008 -1.273113 -2.595052 9.553520 0.053480 0.119935 0.007797 -1.476082 -1.701922 10.018141 4.406930 -9.931565 -2.989320 0.000000 0.000000 0.000000 0.424686 -1.028539 7.243375 -4.079475 -1.034896 2.913388 -58.637638 13.844925 28.500351 -10.174435 -65.370033 17.040344 0.000000 0.000000 0.000000 -3.792346 0.382999 6.638526 24.949419 -1.536792 3.551572 35.559946 11.405096 -19.662346 -3.915900 38.506735 -4.188527 0.000000 0.000000 0.000000 
-6.310312 81.016525 -76.590332 179.665572 -25.753573 -179.948697 -2.398420 -2.808560 7.788634 -3.397792 -7.120922 -28.345070 11.619680 3.650520 33.566087 -5.147294 -6.066643 -7.307617 0.000000 0.000000 0.000000 0.240763 -2.386279 8.141051 -7.183881 5.653114 -34.214863 -0.681477 5.306080 48.691135 11.510906 7.216017 -6.811210 0.000000 0.000000 0.000000 2.034211 0.439720 -8.175864 0.733131 2.377708 -2.468578 -1.258002 -2.499402 9.658686 0.057986 0.120147 -0.007666 -1.462964 -1.558020 10.024553 4.306567 -9.845400 -2.752228 0.000000 0.000000 0.000000 0.478648 -1.078701 7.212403 -4.258841 -1.220339 2.769574 -58.638875 13.943106 28.009101 -9.909451 -65.534545 16.973131 0.000000 0.000000 0.000000 -3.752507 0.401153 6.765989 24.805128 -0.233117 4.149263 36.588565 10.131722 -14.868671 -4.378289 36.237811 -3.675404 0.000000 0.000000 0.000000 
-6.944613 80.890137 -76.751976 179.748135 -28.152933 -179.952822 -2.499290 -2.880174 7.837900 -3.691475 -7.093272 -28.611152 11.282707 3.641874 34.330921 -5.383995 -6.545455 -7.635380 0.000000 0.000000 0.000000 0.208793 -2.358222 7.977944 -6.484405 6.443305 -33.965540 -0.725027 5.355097 48.024416 11.690487 7.236558 -7.232474 0.000000 0.000000 0.000000 1.870178 0.444569 -8.615088 0.463149 2.297840 -2.723677 -1.294974 -2.441521 9.772587 0.061584 0.102379 0.014839 -1.496618 -1.490921 10.132003 4.284545 -9.553427 -2.449218 0.000000 0.000000 0.000000 0.465096 -0.936819 7.307589 -4.462499 -1.355647 2.577863 -58.502346 13.414234 27.180111 -9.860193 -65.448929 17.101013 0.000000 0.000000 0.000000 -3.793945 0.584380 6.955614 24.534280 1.196609 4.663271 37.949228 8.429837 -7.642083 -5.060668 34.998046 -3.267201 0.000000 0.000000 0.000000 
-7.539679 80.807472 -76.952522 179.767956 -30.831310 -179.937509 -2.492031 -3.085207 7.922312 -3.999951 -6.967283 -28.866398 10.915506 3.652112 34.793277 -5.841348 -7.199474 -7.700638 0.000000 0.000000 0.000000 0.241481 -2.648732 7.789685 -5.817339 7.436573 -33.813029 -0.737451 5.458735 47.657525 11.932858 7.238214 -7.524852 0.000000 0.000000 0.000000 1.749804 0.399415 -9.030657 0.237295 2.245016 -3.061591 -1.380728 -2.431217 9.985123 0.043195 0.070426 -0.015421 -1.571665 -1.481320 10.398084 4.306912 -9.237030 -1.920343 0.000000 0.000000 0.000000 0.399943 -0.955690 7.405263 -4.534874 -1.421619 2.377421 -58.370558 12.560884 26.202376 -9.536101 -65.148694 16.906306 0.000000 0.000000 0.000000 -3.895846 0.712241 7.183419 24.261392 2.801430 5.332403 39.480163 5.882498 1.778175 -5.858030 35.427645 -2.848102 0.000000 0.000000 0.000000 
-8.053199 80.768944 -77.124504 179.699422 -33.830825 -179.848853 -2.403768 -3.452134 8.046607 -4.407867 -6.720032 -29.028454 10.477070 3.523088 34.967601 -6.514299 -8.039151 -7.479718 0.000000 0.000000 0.000000 0.253347 -2.848839 7.666976 -5.206690 8.256736 -33.728352 -0.754367 5.707667 47.634726 12.240852 7.368179 -7.872263 0.000000 0.000000 0.000000 1.652127 0.342734 -9.357451 0.051967 2.171153 -3.431030 -1.517396 -2.424756 10.191954 -0.005805 0.064342 0.026660 -1.537353 -1.282637 10.627419 4.500862 -8.973351 -1.348551 0.000000 0.000000 0.000000 0.380870 -0.882799 7.632102 -4.669254 -1.696258 2.128183 -58.074981 11.547892 25.218197 -9.161237 -64.787404 16.636222 0.000000 0.000000 0.000000 -3.902746 0.750447 7.383826 23.924324 4.264940 5.894555 40.718289 2.563477 12.488126 -6.684529 37.814557 -2.618001 0.000000 0.000000 0.000000 
-8.487229 80.759247 -77.231186 179.888987 -36.856746 -179.882826 -2.089323 -3.706513 8.150578 -4.620738 -6.660068 -29.100352 10.121097 3.749215 35.005946 -7.395823 -9.032766 -7.055888 0.000000 0.000000 0.000000 0.414752 -2.836196 7.614170 -4.776470 9.383224 -33.570619 -0.613471 5.793132 47.874599 12.436531 7.376110 -8.286156 0.000000 0.000000 0.000000 1.739252 0.305992 -9.535248 0.013806 2.146789 -3.858527 -1.468932 -2.399905 10.377015 0.012325 0.088953 0.020537 -1.710119 -1.168941 10.853942 4.782643 -8.818202 -0.674087 0.000000 0.000000 0.000000 0.220766 -0.886789 7.773599 -4.794569 -1.799344 1.926628 -57.615617 10.807855 24.494088 -8.996913 -64.328088 16.556172 0.000000 0.000000 0.000000 -4.105165 0.770313 7.533971 23.407325 5.522419 6.335343 41.367608 -1.257080 22.792186 -7.569477 42.158339 -2.593187 0.000000 0.000000 0.000000 
-8.847236 80.759834 -77.334290 179.858975 -39.937267 -179.834004 -1.545120 -3.946091 8.195436 -5.380485 -6.700515 -29.054409 9.517294 3.349709 34.822087 -8.191314 -9.515302 -6.399658 0.000000 0.000000 0.000000 0.438006 -2.684261 7.628478 -4.560680 10.359883 -33.279345 -0.524143 6.050007 48.302896 12.649414 7.480771 -8.659078 0.000000 0.000000 0.000000 1.852207 0.358021 -9.491425 -0.078577 1.995329 -4.300494 -1.494467 -2.467753 10.562600 -0.019769 0.228137 0.011244 -1.634412 -1.436004 11.013221 5.015176 -8.553204 0.112791 0.000000 0.000000 0.000000 0.281800 -0.872391 7.836560 -4.909163 -1.804501 1.740403 -57.355878 10.630804 24.165365 -8.646093 -63.895866 16.302905 0.000000 0.000000 0.000000 -4.119034 0.845289 7.576061 22.740036 6.471484 6.549563 41.112883 -5.066382 31.198358 -8.561450 48.046631 -2.906247 0.000000 0.000000 0.000000 
